# xmcd CD database file
#
# Track frame offsets:
#	150
#	61429
#	148612
#	194245
#
# Disc length: 3404 seconds
#
# Revision: 0
# Processed by: cddbd v1.5.2PL0 Copyright (c) Steve Scherf et al.
# Submitted via: CDex 1.70beta2
#
DISCID=3f0d4a04
DTITLE=Joe Morris - Wildlife
DYEAR=2008
DGENRE=Jazz
TTITLE0=Geomantic
TTITLE1=Thicket
TTITLE2=Crow
TTITLE3=Nettle
EXTD=YEAR: 2008
EXTT0=
EXTT1=
EXTT2=
EXTT3=
PLAYORDER=
